<?xml version="1.0" encoding="utf-8"?>
<svg xmlns="http://www.w3.org/2000/svg"
	xmlns:xlink="http://www.w3.org/1999/xlink"
	width="98px" height="15px" viewBox="0 0 98 15">
<filter filterUnits="objectBoundingBox" x="0.00" y="0.00" width="100.00" height="100.00" id="filter0">
<feFlood flood-color="rgb(255,255,255)" result="coFloodOut1"/>
<feComposite in="coFloodOut1" in2="SourceAlpha" operator="in" result="coOverlay1"/>
<feBlend in="coOverlay1" in2="SourceGraphic" mode="normal" result="colorOverlay1"/>
</filter>
<filter filterUnits="objectBoundingBox" x="0.00" y="0.00" width="100.00" height="100.00" id="filter1">
<feFlood flood-color="rgb(255,255,255)" result="coFloodOut1"/>
<feComposite in="coFloodOut1" in2="SourceAlpha" operator="in" result="coOverlay1"/>
<feBlend in="coOverlay1" in2="SourceGraphic" mode="normal" result="colorOverlay1"/>
</filter>
<filter filterUnits="objectBoundingBox" x="0.00" y="0.00" width="100.00" height="100.00" id="filter2">
<feFlood flood-color="rgb(255,255,255)" result="coFloodOut1"/>
<feComposite in="coFloodOut1" in2="SourceAlpha" operator="in" result="coOverlay1"/>
<feBlend in="coOverlay1" in2="SourceGraphic" mode="normal" result="colorOverlay1"/>
</filter>
<filter filterUnits="objectBoundingBox" x="0.00" y="0.00" width="100.00" height="100.00" id="filter3">
<feFlood flood-color="rgb(255,255,255)" result="coFloodOut1"/>
<feComposite in="coFloodOut1" in2="SourceAlpha" operator="in" result="coOverlay1"/>
<feBlend in="coOverlay1" in2="SourceGraphic" mode="normal" result="colorOverlay1"/>
</filter>
<clipPath id="clip0"><circle cx="7.50" cy="7.50" r="7.50"/></clipPath><g><path fillRule="evenodd" d="M 5.7 2.47C 8.48 2.47 10.72 4.72 10.72 7.5 10.72 10.27 8.48 12.52 5.7 12.52 2.92 12.52 0.67 10.27 0.67 7.5 0.67 4.72 2.92 2.47 5.7 2.47Z" fill="rgb(255,255,255)" opacity="0.50" filter="url(#filter0)"/><circle cx="28.50" cy="7.50" r="7.50" fill="none" stroke="rgb(211,193,173)" stroke-width="4.00px" clip-path="url(#clip0)"/><path fillRule="evenodd" d="M 51.5 2.47C 54.28 2.47 56.52 4.72 56.52 7.5 56.52 10.27 54.28 12.52 51.5 12.52 48.72 12.52 46.47 10.27 46.47 7.5 46.47 4.72 48.72 2.47 51.5 2.47Z" fill="rgb(255,255,255)" opacity="0.50" filter="url(#filter1)"/><path fillRule="evenodd" d="M 71.9 2.47C 74.68 2.47 76.92 4.72 76.92 7.5 76.92 10.27 74.68 12.52 71.9 12.52 69.12 12.52 66.87 10.27 66.87 7.5 66.87 4.72 69.12 2.47 71.9 2.47Z" fill="rgb(255,255,255)" opacity="0.50" filter="url(#filter2)"/><path fillRule="evenodd" d="M 92.3 2.47C 95.08 2.47 97.32 4.72 97.32 7.5 97.32 10.27 95.08 12.52 92.3 12.52 89.52 12.52 87.27 10.27 87.27 7.5 87.27 4.72 89.52 2.47 92.3 2.47Z" fill="rgb(255,255,255)" opacity="0.50" filter="url(#filter3)"/></g></svg>